# xmcd CD Database Entry
#
# Track frame offsets:
# 150
# 16421
# 29715
# 38909
# 50733
# 70616
# 92191
# 101737
# 114687
# 128181
#
# Disc length: 1851 seconds
#
# Revision: 1
# Processed by: cddbd v1.4PL0 Copyright (c) Steve Scherf et al.
# Submitted via: tcd 2.0b
#
DISCID=8d07390a
DTITLE=Bruce Delaplain/Ten Tonics for the blues
DYEAR=1900
DGENRE=
TTITLE0=She Caught the Katy
TTITLE1=Jambalaya
TTITLE2=Great Balls o' Fire
TTITLE3=Ain't That a Shame
TTITLE4=Stormy Monday
TTITLE5=Give Me Back My Wig
TTITLE6=I Want You
TTITLE7=Teena Neena Nu
TTITLE8=Water Coast
TTITLE9=Oh Pretty Woman
EXTD=Bruce Delaplain, Dan Treanor, Jerry Yetman, and Tom Quinn
EXTT0=Taj Mahal\n
EXTT1=Hank Williams
EXTT2=Otis Blackwell
EXTT3=Fats Domino
EXTT4=T-Bone Walker
EXTT5=Hound Dog Taylor
EXTT6=Louis Jordan
EXTT7=Slim Harpo
EXTT8=Big Bill Broonzy
EXTT9=Albert King
PLAYORDER=
